<svg xmlns="http://www.w3.org/2000/svg" xmlns:xlink="http://www.w3.org/1999/xlink" width="71.98" height="80" viewBox="0 0 71.98 80"><defs><clipPath id="a"><path d="M351.62,303.867l-18.2,36.882h9.607L356.4,311.882l7.483,15.931H353.17l-3.342,7.82H367.6l2.414,5.108h9.654l-18.875-39.336ZM378.639,262l-13.372,28.869L351.654,262H342l18.87,39.349,9.173-2.462L388.247,262Z" transform="translate(-333.42 -262)" fill="none"/></clipPath><radialGradient id="b" cx="0.809" cy="0.49" r="0.431" gradientTransform="matrix(1.436, 0, 0, -1, 0.269, 3.586)" gradientUnits="objectBoundingBox"><stop offset="0" stop-color="#08a64f"/><stop offset="1" stop-color="#004315"/></radialGradient><clipPath id="c"><path d="M351.62,303.867l-18.2,36.882h9.607L356.4,311.882l7.483,15.931H353.17l-3.342,7.82H367.6l2.414,5.108h9.654l-18.875-39.336ZM378.639,262l-13.372,28.869L351.654,262H342l18.87,39.349,9.173-2.462L388.247,262Z" transform="translate(-333.42 -262)" fill="#fff"/></clipPath></defs><g transform="translate(99.682 193.55)"><path d="M347.316,298.005l-.916.245-3.154-6.715-.405-.86-15.375-32.76a.467.467,0,0,1,.845-.4l15.451,32.916.4.859Z" transform="translate(-419.551 -450.8)" fill="#d1d3d4"/><path d="M571.018,536.473a.473.473,0,0,1-.2.045.466.466,0,0,1-.423-.27l-15.356-32.712-.4-.86-3.1-6.6.916-.246,3.1,6.6.4.862,15.283,32.557a.467.467,0,0,1-.224.621" transform="translate(-606.74 -650.067)" fill="#d1d3d4"/><path d="M173.214,463.04l-.547,1.111-19,4.983.547-1.111Z" transform="translate(-253.352 -603.08)" fill="#d1d3d4"/><path d="M424.532,396.89l-.55,1.111-11.653,3.057-.916.241-6.191,1.623-.412-.858,6.2-1.625.918-.242Z" transform="translate(-463.109 -547.83)" fill="#d1d3d4"/><path d="M206.214,396.17l-.547,1.109-19,4.983.547-1.111Z" transform="translate(-280.914 -547.229)" fill="#d1d3d4"/><path d="M458.434,330.02l-.55,1.111-18.994,4.981.547-1.111Z" transform="translate(-491.574 -491.979)" fill="#d1d3d4"/><path d="M239.255,330.728l-6.173,1.618-.919.242-12.5,3.279.549-1.109,11.553-3.03.918-.241,6.164-1.618Z" transform="translate(-308.468 -491.853)" fill="#d1d3d4"/><path d="M491.434,263.14l-.55,1.111-18.994,4.981.547-1.109Z" transform="translate(-519.136 -436.119)" fill="#d1d3d4"/><g transform="translate(-91.142 -192.767)" clip-path="url(#a)"><rect width="54.827" height="78.744" transform="translate(0 0.005)" fill="url(#b)"/></g><path d="M351.62,303.867l-18.2,36.882h9.607L356.4,311.882l7.483,15.931H353.17l-3.342,7.82H367.6l2.414,5.108h9.654l-18.875-39.336ZM378.639,262l-13.372,28.869L351.654,262H342l18.87,39.349,9.173-2.462L388.247,262Z" transform="translate(-424.562 -454.767)" fill="#fff"/><g transform="translate(-91.142 -192.767)" clip-path="url(#c)"><rect width="86.611" height="95.558" transform="translate(-33.864 19.289) rotate(-29.66)" fill="#fff"/></g></g></svg>